<svg width="300" height="55" viewBox="0 0 300 55" fill="none" xmlns="http://www.w3.org/2000/svg">
<path d="M27.008 22.72C26.552 21.88 25.892 21.244 25.028 20.812C24.188 20.356 23.192 20.128 22.04 20.128C20.048 20.128 18.452 20.788 17.252 22.108C16.052 23.404 15.452 25.144 15.452 27.328C15.452 29.656 16.076 31.48 17.324 32.8C18.596 34.096 20.336 34.744 22.544 34.744C24.056 34.744 25.328 34.36 26.36 33.592C27.416 32.824 28.184 31.72 28.664 30.28H20.852V25.744H34.244V31.468C33.788 33.004 33.008 34.432 31.904 35.752C30.824 37.072 29.444 38.14 27.764 38.956C26.084 39.772 24.188 40.18 22.076 40.18C19.58 40.18 17.348 39.64 15.38 38.56C13.436 37.456 11.912 35.932 10.808 33.988C9.728 32.044 9.188 29.824 9.188 27.328C9.188 24.832 9.728 22.612 10.808 20.668C11.912 18.7 13.436 17.176 15.38 16.096C17.324 14.992 19.544 14.44 22.04 14.44C25.064 14.44 27.608 15.172 29.672 16.636C31.76 18.1 33.14 20.128 33.812 22.72H27.008ZM56.5899 29.632C56.5899 30.208 56.5539 30.808 56.4819 31.432H42.5499C42.6459 32.68 43.0419 33.64 43.7379 34.312C44.4579 34.96 45.3339 35.284 46.3659 35.284C47.9019 35.284 48.9699 34.636 49.5699 33.34H56.1219C55.7859 34.66 55.1739 35.848 54.2859 36.904C53.4219 37.96 52.3299 38.788 51.0099 39.388C49.6899 39.988 48.2139 40.288 46.5819 40.288C44.6139 40.288 42.8619 39.868 41.3259 39.028C39.7899 38.188 38.5899 36.988 37.7259 35.428C36.8619 33.868 36.4299 32.044 36.4299 29.956C36.4299 27.868 36.8499 26.044 37.6899 24.484C38.5539 22.924 39.7539 21.724 41.2899 20.884C42.8259 20.044 44.5899 19.624 46.5819 19.624C48.5259 19.624 50.2539 20.032 51.7659 20.848C53.2779 21.664 54.4539 22.828 55.2939 24.34C56.1579 25.852 56.5899 27.616 56.5899 29.632ZM50.2899 28.012C50.2899 26.956 49.9299 26.116 49.2099 25.492C48.4899 24.868 47.5899 24.556 46.5099 24.556C45.4779 24.556 44.6019 24.856 43.8819 25.456C43.1859 26.056 42.7539 26.908 42.5859 28.012H50.2899ZM78.7735 29.632C78.7735 30.208 78.7375 30.808 78.6655 31.432H64.7335C64.8295 32.68 65.2255 33.64 65.9215 34.312C66.6415 34.96 67.5175 35.284 68.5495 35.284C70.0855 35.284 71.1535 34.636 71.7535 33.34H78.3055C77.9695 34.66 77.3575 35.848 76.4695 36.904C75.6055 37.96 74.5135 38.788 73.1935 39.388C71.8735 39.988 70.3975 40.288 68.7655 40.288C66.7975 40.288 65.0455 39.868 63.5095 39.028C61.9735 38.188 60.7735 36.988 59.9095 35.428C59.0455 33.868 58.6135 32.044 58.6135 29.956C58.6135 27.868 59.0335 26.044 59.8735 24.484C60.7375 22.924 61.9375 21.724 63.4735 20.884C65.0095 20.044 66.7735 19.624 68.7655 19.624C70.7095 19.624 72.4375 20.032 73.9495 20.848C75.4615 21.664 76.6375 22.828 77.4775 24.34C78.3415 25.852 78.7735 27.616 78.7735 29.632ZM72.4735 28.012C72.4735 26.956 72.1135 26.116 71.3935 25.492C70.6735 24.868 69.7735 24.556 68.6935 24.556C67.6615 24.556 66.7855 24.856 66.0655 25.456C65.3695 26.056 64.9375 26.908 64.7695 28.012H72.4735ZM94.2971 40L88.1771 31.576V40H82.0211V13.36H88.1771V28.084L94.2611 19.912H101.857L93.5051 29.992L101.929 40H94.2971ZM118.06 14.728V40H111.904V14.728H118.06ZM134.761 19.696C137.113 19.696 138.985 20.464 140.377 22C141.793 23.512 142.501 25.6 142.501 28.264V40H136.381V29.092C136.381 27.748 136.033 26.704 135.337 25.96C134.641 25.216 133.705 24.844 132.529 24.844C131.353 24.844 130.417 25.216 129.721 25.96C129.025 26.704 128.677 27.748 128.677 29.092V40H122.521V19.912H128.677V22.576C129.301 21.688 130.141 20.992 131.197 20.488C132.253 19.96 133.441 19.696 134.761 19.696ZM155.815 34.24L160.171 19.912H166.723L159.595 40H151.999L144.871 19.912H151.459L155.815 34.24ZM188.25 29.632C188.25 30.208 188.214 30.808 188.142 31.432H174.21C174.306 32.68 174.702 33.64 175.398 34.312C176.118 34.96 176.994 35.284 178.026 35.284C179.562 35.284 180.63 34.636 181.23 33.34H187.782C187.446 34.66 186.834 35.848 185.946 36.904C185.082 37.96 183.99 38.788 182.67 39.388C181.35 39.988 179.874 40.288 178.242 40.288C176.274 40.288 174.522 39.868 172.986 39.028C171.45 38.188 170.25 36.988 169.386 35.428C168.522 33.868 168.09 32.044 168.09 29.956C168.09 27.868 168.51 26.044 169.35 24.484C170.214 22.924 171.414 21.724 172.95 20.884C174.486 20.044 176.25 19.624 178.242 19.624C180.186 19.624 181.914 20.032 183.426 20.848C184.938 21.664 186.114 22.828 186.954 24.34C187.818 25.852 188.25 27.616 188.25 29.632ZM181.95 28.012C181.95 26.956 181.59 26.116 180.87 25.492C180.15 24.868 179.25 24.556 178.17 24.556C177.138 24.556 176.262 24.856 175.542 25.456C174.846 26.056 174.414 26.908 174.246 28.012H181.95ZM203.738 19.696C206.09 19.696 207.962 20.464 209.354 22C210.77 23.512 211.478 25.6 211.478 28.264V40H205.358V29.092C205.358 27.748 205.01 26.704 204.314 25.96C203.618 25.216 202.682 24.844 201.506 24.844C200.33 24.844 199.394 25.216 198.698 25.96C198.002 26.704 197.654 27.748 197.654 29.092V40H191.498V19.912H197.654V22.576C198.278 21.688 199.118 20.992 200.174 20.488C201.23 19.96 202.418 19.696 203.738 19.696ZM226.951 34.78V40H223.819C221.587 40 219.847 39.46 218.599 38.38C217.351 37.276 216.727 35.488 216.727 33.016V25.024H214.279V19.912H216.727V15.016H222.883V19.912H226.915V25.024H222.883V33.088C222.883 33.688 223.027 34.12 223.315 34.384C223.603 34.648 224.083 34.78 224.755 34.78H226.951ZM239.524 40.288C237.556 40.288 235.78 39.868 234.196 39.028C232.636 38.188 231.4 36.988 230.488 35.428C229.6 33.868 229.156 32.044 229.156 29.956C229.156 27.892 229.612 26.08 230.524 24.52C231.436 22.936 232.684 21.724 234.268 20.884C235.852 20.044 237.628 19.624 239.596 19.624C241.564 19.624 243.34 20.044 244.924 20.884C246.508 21.724 247.756 22.936 248.668 24.52C249.58 26.08 250.036 27.892 250.036 29.956C250.036 32.02 249.568 33.844 248.632 35.428C247.72 36.988 246.46 38.188 244.852 39.028C243.268 39.868 241.492 40.288 239.524 40.288ZM239.524 34.96C240.7 34.96 241.696 34.528 242.512 33.664C243.352 32.8 243.772 31.564 243.772 29.956C243.772 28.348 243.364 27.112 242.548 26.248C241.756 25.384 240.772 24.952 239.596 24.952C238.396 24.952 237.4 25.384 236.608 26.248C235.816 27.088 235.42 28.324 235.42 29.956C235.42 31.564 235.804 32.8 236.572 33.664C237.364 34.528 238.348 34.96 239.524 34.96ZM259.458 23.26C260.178 22.156 261.078 21.292 262.158 20.668C263.238 20.02 264.438 19.696 265.758 19.696V26.212H264.066C262.53 26.212 261.378 26.548 260.61 27.22C259.842 27.868 259.458 29.02 259.458 30.676V40H253.302V19.912H259.458V23.26ZM289.221 19.912L276.621 49.54H269.997L274.605 39.316L266.433 19.912H273.309L277.953 32.476L282.561 19.912H289.221Z" fill="black"/>
</svg>
